<?xml version="1.0" encoding="UTF-8" standalone="no"?>
<!-- Created with Inkscape (http://www.inkscape.org/) -->

<svg
   width="512"
   height="512"
   viewBox="0 0 512 512"
   version="1.1"
   id="svg1"
   sodipodi:docname="icon.svg"
   inkscape:version="1.3.2 (091e20ef0f, 2023-11-25)"
   inkscape:export-filename="icon.png"
   inkscape:export-xdpi="118.72464"
   inkscape:export-ydpi="118.72464"
   xmlns:inkscape="http://www.inkscape.org/namespaces/inkscape"
   xmlns:sodipodi="http://sodipodi.sourceforge.net/DTD/sodipodi-0.dtd"
   xmlns="http://www.w3.org/2000/svg"
   xmlns:svg="http://www.w3.org/2000/svg">
  <sodipodi:namedview
     id="namedview1"
     pagecolor="#ffffff"
     bordercolor="#000000"
     borderopacity="0.25"
     inkscape:showpageshadow="2"
     inkscape:pageopacity="0.0"
     inkscape:pagecheckerboard="0"
     inkscape:deskcolor="#d1d1d1"
     inkscape:document-units="px"
     inkscape:zoom="1.4142136"
     inkscape:cx="153.44217"
     inkscape:cy="324.20846"
     inkscape:window-width="2560"
     inkscape:window-height="1371"
     inkscape:window-x="2560"
     inkscape:window-y="306"
     inkscape:window-maximized="1"
     inkscape:current-layer="layer1" />
  <defs
     id="defs1" />
  <g
     inkscape:label="Layer 1"
     inkscape:groupmode="layer"
     id="layer1">
    <g
       id="g18"
       inkscape:label="Toucant"
       transform="matrix(1.0322987,0,0,1.0026511,-9.7092663,-7.7486789)"
       inkscape:export-filename="toucant_splash.png"
       inkscape:export-xdpi="168.75002"
       inkscape:export-ydpi="168.75002">
      <path
         style="fill:#ffffff;fill-opacity:1"
         d="m 267.73026,366.51638 17.75,42 -12.29289,-3.71447 -0.31802,4.86612 15.61091,5.59835 3.25,18 5.68934,-0.21231 -4.68934,-18.03769 10.12132,12.26256 4.08579,-2.79809 -14.95711,-17.46447 -16.25,-36.25 z"
         id="path15-53"
         sodipodi:nodetypes="ccccccccccccc" />
      <path
         style="fill:#ffffff;fill-opacity:1;stroke-width:0.846701"
         d="m 290.15809,357.8468 15.02894,35.56145 -10.4084,-3.14505 -0.26927,4.12015 13.21778,4.74013 2.75178,15.24062 4.81717,-0.17977 -3.97047,-15.27253 8.56973,10.38273 3.45944,-2.36915 -12.6642,-14.78719 -13.75889,-30.69291 z"
         id="path15-5-9"
         sodipodi:nodetypes="ccccccccccccc" />
      <path
         style="opacity:1;fill:#ffffff;fill-opacity:1;stroke-width:1.50775"
         d="m 98.993781,272.32728 -2.132292,0.53306 0.39981,24.12145 26.253721,29.58542 13.99311,13.32676 -23.85491,47.97636 39.04742,-26.12046 2.39881,13.1935 34.2498,27.85293 64.43236,1.99266 104.03484,-34.86675 53.90211,-68.22575 5.84253,-39.39 -251.04059,51.82895 z"
         id="path1" />
      <path
         style="fill:#464646;fill-opacity:1;stroke-width:0.846701"
         d="m 290.96878,356.93756 15.02894,35.56145 -10.4084,-3.14505 -0.26927,4.12015 13.21778,4.74013 2.75178,15.24062 4.81717,-0.17977 -3.97047,-15.27253 8.56973,10.38273 3.45944,-2.36915 -12.6642,-14.78719 -13.75889,-30.69291 z"
         id="path15-5"
         sodipodi:nodetypes="ccccccccccccc" />
      <path
         style="fill:#170f05;fill-opacity:1"
         d="m 275.69975,223.60534 -51.25,39.25 -59.5,27.5 -17.02513,29.5 8.87868,51.0061 34.38909,28.02943 63.25736,1.96447 104.5,-35 53.5,-68 10,-54 -7,-15 z"
         id="path12"
         sodipodi:nodetypes="cccccccccccc" />
      <path
         style="fill:#eef4f7;fill-opacity:1"
         d="m 263.46129,179.62083 11.19806,14.61969 -1.86634,30.48359 11.19805,29.86149 85.85176,11.19805 43.548,-11.19805 8.82882,-27.11066 -21.63764,-49.32392 -69.94429,-60.04651 -61.70109,-21.604395 -0.78154,0.11695 z"
         id="path9"
         sodipodi:nodetypes="cccccccccccc" />
      <path
         style="fill:#170f05;fill-opacity:1"
         d="m 256.73431,177.93107 9.01798,5.27881 25.29431,-7.03842 5.27882,-7.25836 -19.1357,-35.41205 -9.01798,-36.951705 -9.81529,2.33698 z"
         id="path7"
         sodipodi:nodetypes="cccccccc" />
      <path
         d="m 258.79545,99.056505 -79.63086,14.931645 -54.74609,33.59375 -11.18164,17.6543 19.42578,1.47656 15.70703,16.33008 -11.66406,15.55273 -14.15234,3.88868 -22.863288,20.52929 0.08398,0.29297 24.023438,-17.24609 136.86523,-26.12891 15.55273,-29.23828 z"
         style="fill:#f6a53c"
         id="path3" />
      <path
         d="m 99.773967,223.30651 -0.08398,-0.29297 22.863283,-20.52929 14.15234,-3.88868 11.66406,-15.55273 -15.70703,-16.33008 -19.42578,-1.47656 -12.45898,19.67187 -8.708986,49.14844 7.464843,-10.57617 z"
         style="fill:#170f05"
         id="path4" />
      <path
         style="fill:#170f05;fill-opacity:1"
         d="m 146.81488,184.28669 93.66786,-25.27208 28.53557,3.02922 1.01575,-1.92186 -29.49485,-3.44683 -100.25653,27.61158 z"
         id="path6"
         sodipodi:nodetypes="ccccccc" />
      <path
         style="fill:#170f05;fill-opacity:1"
         d="m 268.83823,96.471335 28.21723,-3.63544 52.2576,13.686515 50.7023,45.10328 22.70717,76.52005 -31.10571,-37.01579 -51.94654,-55.05711 z"
         id="path8"
         sodipodi:nodetypes="cccccccc" />
      <path
         style="fill:#0f63f6;fill-opacity:1"
         d="m 288.19627,114.49852 -6.36396,8.83884 2.47487,10.25304 6.01041,4.5962 9.19239,-3.53554 2.12132,-10.96015 -6.36396,-9.19239 z"
         id="path10" />
      <path
         style="fill:#170f05;fill-opacity:1"
         d="m 292.07475,119.10534 4.75,3.5 0.125,6.125 -5.75,3 -5.75,-4 0.875,-5.875 z"
         id="path11"
         sodipodi:nodetypes="ccccccc" />
      <path
         style="fill:#170f05;fill-opacity:1"
         d="m 198.34346,312.89476 -40.49613,-26.6126 -31.48015,-21.48628 -27.105381,3.94037 0.298075,24.50291 26.450946,29.83967 33.44172,31.53522 z"
         id="path13"
         sodipodi:nodetypes="cccccccc" />
      <path
         style="fill:#1c1713;fill-opacity:1"
         d="m 242.18407,239.7092 24.74874,2.47488 27.22361,32.17336 -24.39518,36.76955 -92.63099,31.1127 -61.87184,41.36574 28.99138,-61.51829 32.17335,-50.55813 z"
         id="path14" />
      <path
         style="fill:#464646;fill-opacity:1"
         d="m 269.64645,366.22919 17.75,42 -12.29289,-3.71447 -0.31802,4.86612 15.61091,5.59835 3.25,18 5.68934,-0.21231 -4.68934,-18.03769 10.12132,12.26256 4.08579,-2.79809 -14.95711,-17.46447 -16.25,-36.25 z"
         id="path15"
         sodipodi:nodetypes="ccccccccccccc" />
      <path
         style="fill:#f67b20;fill-opacity:1"
         d="m 143.89623,160.8668 14.49569,15.55635 11.31371,-2.47488 -22.27386,-26.87006 -9.19239,-3.18198 -10.96016,6.01041 z"
         id="path16" />
      <path
         style="fill:#f67b20;fill-opacity:1"
         d="m 160.09117,131.41199 18.03122,-12.37437 17.67767,14.49569 14.14214,28.63782 -15.2028,3.88909 -16.97056,-22.27386 z"
         id="path17" />
      <path
         style="fill:#f67b20;fill-opacity:1"
         d="m 223.65222,168.99591 16.97056,-3.27036 7.95495,19.09188 -1.96599,9.18871 -9.65838,2.69822 -4.28553,-15.06891 z"
         id="path25"
         sodipodi:nodetypes="ccccccc"
         transform="matrix(1.5926131,0,0,1.5926131,-152.53606,-155.80244)" />
    </g>
  </g>
</svg>
